<svg viewBox="0 0 2093 482" xmlns="http://www.w3.org/2000/svg" xml:space="preserve" style="fill-rule:evenodd;clip-rule:evenodd;stroke-linejoin:round;stroke-miterlimit:2"><path d="M631.183 122.033c42.934 0 64.4 25.067 64.4 75.2v113.2c0 3.734-1.066 6.8-3.2 9.2-2.133 2.134-5.066 3.2-8.8 3.2-3.733 0-6.8-1.066-9.2-3.2-2.133-2.4-3.2-5.466-3.2-9.2v-111.6c0-19.466-3.466-33.466-10.4-42-6.933-8.8-18-13.2-33.2-13.2-17.333 0-31.2 5.867-41.6 17.6-10.133 11.734-15.2 27.467-15.2 47.2v102c0 3.734-1.066 6.8-3.2 9.2-2.133 2.134-5.066 3.2-8.8 3.2-3.733 0-6.8-1.066-9.2-3.2-2.133-2.4-3.2-5.466-3.2-9.2v-111.6c0-19.466-3.466-33.466-10.4-42-6.933-8.8-18-13.2-33.2-13.2-17.333 0-31.2 5.867-41.6 17.6-10.133 11.734-15.2 27.467-15.2 47.2v102c0 3.734-1.066 6.8-3.2 9.2-2.133 2.134-5.066 3.2-8.8 3.2-3.733 0-6.8-1.066-9.2-3.2-2.133-2.4-3.2-5.466-3.2-9.2v-175.2c0-4 1.067-7.066 3.2-9.2 2.4-2.133 5.467-3.2 9.2-3.2 3.734 0 6.534 1.067 8.4 3.2 2.134 2.134 3.2 5.067 3.2 8.8v24c5.6-12 13.6-21.066 24-27.2 10.667-6.4 22.934-9.6 36.8-9.6 30.667 0 50.534 12.8 59.6 38.4 5.6-12 14.134-21.333 25.6-28 11.467-6.933 24.667-10.4 39.6-10.4Zm269.909 8c2.133-4.8 5.6-7.2 10.4-7.2 2.933 0 5.6 1.067 8 3.2 2.4 2.134 3.6 4.667 3.6 7.6 0 1.867-.4 3.6-1.2 5.2l-113.2 248.4c-2.134 4.534-5.6 6.8-10.4 6.8-2.934 0-5.6-.933-8-2.8-2.134-1.866-3.2-4.266-3.2-7.2 0-1.6.4-3.2 1.2-4.8l28.4-62-82-178.4c-.8-1.6-1.2-3.2-1.2-4.8 0-3.2 1.333-5.866 4-8 2.933-2.4 6-3.6 9.2-3.6 5.066 0 8.533 2.4 10.4 7.2l72 161.6 72-161.2Z" style="fill:#8123e0;fill-rule:nonzero"/><path d="M1145.41 176.433c20 3.734 35.2 11.6 45.6 23.6 10.667 12 16 27.6 16 46.8 0 23.734-8.666 42-26 54.8-17.333 12.8-43.066 19.2-77.2 19.2h-124.8v-280h116.8c30.4 0 54 6.267 70.8 18.8 17.067 12.267 25.6 29.867 25.6 52.8 0 16-4.266 29.467-12.8 40.4-8.266 10.934-19.6 18.8-34 23.6Zm-146-118v111.6h95.6c24.534 0 43.334-4.666 56.4-14 13.334-9.6 20-23.6 20-42 0-18.133-6.666-31.866-20-41.2-13.066-9.6-31.866-14.4-56.4-14.4h-95.6Zm104.4 244.8c27.2 0 47.734-4.666 61.6-14 14.134-9.6 21.2-24.266 21.2-44 0-19.733-7.066-34.266-21.2-43.6-13.866-9.333-34.4-14-61.6-14h-104.4v115.6h104.4Zm251.184 19.2c-19.734 0-37.6-4.533-53.6-13.6-15.734-9.066-28.134-21.6-37.2-37.6-9.067-16.266-13.6-34.533-13.6-54.8 0-20.266 4.533-38.4 13.6-54.4 9.066-16.266 21.466-28.933 37.2-38 16-9.066 33.866-13.6 53.6-13.6 19.733 0 37.466 4.534 53.2 13.6 16 9.067 28.533 21.734 37.6 38 9.066 16 13.6 34.134 13.6 54.4 0 20.267-4.534 38.534-13.6 54.8-9.067 16-21.6 28.534-37.6 37.6-15.734 9.067-33.467 13.6-53.2 13.6Zm0-18c16 0 30.266-3.733 42.8-11.2 12.8-7.466 22.8-17.866 30-31.2 7.466-13.333 11.2-28.533 11.2-45.6 0-17.066-3.734-32.266-11.2-45.6-7.2-13.333-17.2-23.733-30-31.2-12.534-7.466-26.8-11.2-42.8-11.2-16 0-30.4 3.734-43.2 11.2-12.534 7.467-22.534 17.867-30 31.2-7.2 13.334-10.8 28.534-10.8 45.6 0 17.067 3.6 32.267 10.8 45.6 7.466 13.334 17.466 23.734 30 31.2 12.8 7.467 27.2 11.2 43.2 11.2Zm236.062-194c25.867 0 45.734 6.667 59.6 20 13.867 13.067 20.8 32.4 20.8 58v132.4h-19.2v-37.2c-6.666 12.267-16.4 21.867-29.2 28.8-12.8 6.667-28.133 10-46 10-23.2 0-41.6-5.466-55.2-16.4-13.333-10.933-20-25.333-20-43.2 0-17.333 6.134-31.333 18.4-42 12.534-10.933 32.4-16.4 59.6-16.4h71.6v-16.8c0-19.466-5.333-34.266-16-44.4-10.4-10.133-25.733-15.2-46-15.2-13.866 0-27.2 2.4-40 7.2-12.533 4.8-23.2 11.2-32 19.2l-10-14.4c10.4-9.333 22.934-16.533 37.6-21.6 14.667-5.333 30-8 46-8Zm-11.2 195.6c17.334 0 32-4 44-12 12.267-8 21.467-19.6 27.6-34.8v-39.2h-71.2c-20.533 0-35.466 3.734-44.8 11.2-9.066 7.467-13.6 17.734-13.6 30.8 0 13.6 5.067 24.4 15.2 32.4 10.134 7.734 24.4 11.6 42.8 11.6Zm193.204-148.4c6.4-15.2 16.4-26.8 30-34.8 13.6-8.266 30.134-12.4 49.6-12.4v19.6l-4.8-.4c-23.2 0-41.333 7.334-54.4 22-13.066 14.4-19.6 34.534-19.6 60.4v108.8h-20v-208.8h19.2v45.6Zm318.355-133.6v296.8h-19.6v-49.2c-8.267 16.267-19.867 28.8-34.8 37.6-14.934 8.8-31.867 13.2-50.8 13.2-19.467 0-37.067-4.533-52.8-13.6-15.734-9.066-28.134-21.6-37.2-37.6-8.8-16-13.2-34.266-13.2-54.8 0-20.533 4.4-38.8 13.2-54.8 9.066-16.266 21.466-28.8 37.2-37.6 15.733-9.066 33.333-13.6 52.8-13.6 18.666 0 35.333 4.4 50 13.2 14.933 8.8 26.666 21.067 35.2 36.8v-136.4h20Zm-104 280.4c16 0 30.266-3.733 42.8-11.2 12.8-7.466 22.8-17.866 30-31.2 7.466-13.333 11.2-28.533 11.2-45.6 0-17.066-3.734-32.266-11.2-45.6-7.2-13.333-17.2-23.733-30-31.2-12.534-7.466-26.8-11.2-42.8-11.2-16 0-30.4 3.734-43.2 11.2-12.534 7.467-22.534 17.867-30 31.2-7.2 13.334-10.8 28.534-10.8 45.6 0 17.067 3.6 32.267 10.8 45.6 7.466 13.334 17.466 23.734 30 31.2 12.8 7.467 27.2 11.2 43.2 11.2Z" style="fill:#444;fill-rule:nonzero"/><path d="M1582.88 412.8c4.267 0 8.034 1.033 11.3 3.1 3.267 2.067 5.8 5 7.6 8.8 1.8 3.733 2.7 8.1 2.7 13.1 0 5.067-.9 9.533-2.7 13.4-1.8 3.8-4.333 6.767-7.6 8.9-3.266 2.067-7.033 3.1-11.3 3.1-3.933 0-7.333-.833-10.2-2.5-2.866-1.733-5.033-4.233-6.5-7.5v6.6c0 .933-.266 1.7-.8 2.3-.533.533-1.266.8-2.2.8-.933 0-1.7-.267-2.3-.8-.533-.6-.8-1.367-.8-2.3v-65.2c0-.933.267-1.667.8-2.2.6-.6 1.367-.9 2.3-.9.934 0 1.667.3 2.2.9.534.533.8 1.267.8 2.2v28.2c1.467-3.267 3.634-5.733 6.5-7.4 2.867-1.733 6.267-2.6 10.2-2.6Zm-.8 45c5.067 0 9-1.767 11.8-5.3 2.867-3.533 4.3-8.433 4.3-14.7 0-6.267-1.433-11.1-4.3-14.5-2.8-3.467-6.766-5.2-11.9-5.2-5.066 0-8.966 1.733-11.7 5.2-2.733 3.467-4.1 8.367-4.1 14.7 0 6.333 1.367 11.233 4.1 14.7 2.8 3.4 6.734 5.1 11.8 5.1Zm70.438-43c.533-1.2 1.4-1.8 2.6-1.8.733 0 1.4.267 2 .8.6.533.9 1.167.9 1.9 0 .467-.1.9-.3 1.3l-28.3 62.1c-.534 1.133-1.4 1.7-2.6 1.7-.734 0-1.4-.233-2-.7-.534-.467-.8-1.067-.8-1.8 0-.4.1-.8.3-1.2l7.1-15.5-20.5-44.6c-.2-.4-.3-.8-.3-1.2 0-.8.333-1.467 1-2 .733-.6 1.5-.9 2.3-.9 1.266 0 2.133.6 2.6 1.8l18 40.4 18-40.3Zm90.571 43.1c.733.667 1.1 1.4 1.1 2.2 0 .733-.3 1.4-.9 2-.534.533-1.167.8-1.9.8-.6 0-1.234-.267-1.9-.8l-39.2-33.3v31c0 .933-.3 1.7-.9 2.3-.534.6-1.267.9-2.2.9-.934 0-1.7-.3-2.3-.9-.534-.6-.8-1.367-.8-2.3v-65.1c0-.933.266-1.7.8-2.3.6-.6 1.366-.9 2.3-.9.933 0 1.666.3 2.2.9.6.6.9 1.367.9 2.3v30.1l37.2-32.4c.533-.533 1.166-.8 1.9-.8.733 0 1.4.3 2 .9.6.533.9 1.167.9 1.9 0 .8-.367 1.533-1.1 2.2l-34.8 29.9 36.7 31.4Zm61.329 0c.733.667 1.1 1.4 1.1 2.2 0 .733-.3 1.4-.9 2-.534.533-1.167.8-1.9.8-.6 0-1.233-.267-1.9-.8l-39.2-33.3v31c0 .933-.3 1.7-.9 2.3-.533.6-1.267.9-2.2.9-.933 0-1.7-.3-2.3-.9-.533-.6-.8-1.367-.8-2.3v-65.1c0-.933.267-1.7.8-2.3.6-.6 1.367-.9 2.3-.9.933 0 1.667.3 2.2.9.6.6.9 1.367.9 2.3v30.1l37.2-32.4c.533-.533 1.167-.8 1.9-.8.733 0 1.4.3 2 .9.6.533.9 1.167.9 1.9 0 .8-.367 1.533-1.1 2.2l-34.8 29.9 36.7 31.4Zm48.941-66.4c.934 0 1.667.3 2.2.9.6.533.9 1.267.9 2.2v65.2c0 .933-.3 1.7-.9 2.3-.533.533-1.266.8-2.2.8-.933 0-1.666-.267-2.2-.8-.533-.6-.8-1.367-.8-2.3v-6.6c-1.466 3.267-3.633 5.767-6.5 7.5-2.866 1.667-6.266 2.5-10.2 2.5-4.266 0-8.033-1.033-11.3-3.1-3.266-2.133-5.8-5.1-7.6-8.9-1.8-3.867-2.7-8.333-2.7-13.4 0-5 .9-9.367 2.7-13.1 1.8-3.8 4.334-6.733 7.6-8.8 3.267-2.067 7.034-3.1 11.3-3.1 3.934 0 7.334.867 10.2 2.6 2.867 1.667 5.034 4.133 6.5 7.4v-28.2c0-.933.267-1.667.8-2.2.534-.6 1.267-.9 2.2-.9Zm-18.899 66.3c5.066 0 8.966-1.7 11.699-5.1 2.8-3.467 4.2-8.367 4.2-14.7 0-6.333-1.366-11.233-4.1-14.7-2.733-3.467-6.633-5.2-11.7-5.2-5.133 0-9.1 1.733-11.899 5.2-2.801 3.4-4.201 8.233-4.201 14.5 0 6.333 1.4 11.267 4.2 14.8 2.8 3.467 6.734 5.2 11.8 5.2Zm75.225-5.7c.6 0 1.1.267 1.5.8.467.467.7 1.033.7 1.7 0 1.467-1.133 2.9-3.4 4.3-4.8 2.867-9.866 4.3-15.2 4.3-7.399 0-13.233-2.233-17.499-6.7-4.267-4.467-6.4-10.6-6.4-18.4 0-5 .933-9.4 2.8-13.2 1.933-3.867 4.6-6.833 8-8.9 3.466-2.133 7.433-3.2 11.899-3.2 6.267 0 11.201 2.033 14.801 6.1 3.666 4 5.5 9.533 5.5 16.6 0 1.2-.267 2.1-.8 2.7-.534.533-1.4.8-2.6.8h-33.3c.2 6.133 1.8 10.8 4.8 14 3 3.2 7.233 4.8 12.7 4.8 2.866 0 5.266-.367 7.2-1.1 1.933-.8 4-1.833 6.2-3.1 1.466-1 2.499-1.5 3.1-1.5Zm-17.601-34.3c-4.666 0-8.399 1.467-11.199 4.4-2.8 2.933-4.467 7.033-5 12.3h30.9c-.134-5.333-1.467-9.433-4-12.3-2.534-2.933-6.101-4.4-10.7-4.4Zm48.733 45.4c-2.8 0-5.567-.367-8.3-1.1-2.667-.8-5.033-1.867-7.1-3.2-1.267-.867-2.167-1.6-2.7-2.2-.467-.667-.7-1.4-.7-2.2 0-.667.2-1.233.6-1.7.467-.467 1-.7 1.6-.7.6 0 1.633.5 3.1 1.5 1.933 1.267 3.9 2.3 5.9 3.1 2.067.8 4.633 1.2 7.7 1.2 3.933 0 7-.7 9.2-2.1 2.2-1.467 3.3-3.533 3.3-6.2 0-1.6-.4-2.9-1.2-3.9-.8-1.067-2.133-1.967-4-2.7-1.867-.8-4.533-1.567-8-2.3-5.933-1.333-10.167-3.033-12.7-5.1-2.467-2.133-3.7-4.967-3.7-8.5 0-4.267 1.667-7.7 5-10.3 3.333-2.667 7.667-4 13-4 2.6 0 5.067.333 7.4 1 2.4.667 4.467 1.633 6.2 2.9 2.333 1.6 3.5 3.167 3.5 4.7 0 .667-.233 1.267-.7 1.8-.4.467-.9.7-1.5.7-.667 0-1.7-.533-3.1-1.6-1.8-1.267-3.6-2.267-5.4-3-1.733-.8-3.967-1.2-6.7-1.2-3.467 0-6.233.8-8.3 2.4-2.067 1.533-3.1 3.633-3.1 6.3 0 1.533.333 2.8 1 3.8.733 1 1.933 1.9 3.6 2.7 1.733.733 4.2 1.467 7.4 2.2 4.6 1.067 8.133 2.2 10.6 3.4 2.467 1.2 4.233 2.633 5.3 4.3 1.067 1.667 1.6 3.8 1.6 6.4 0 4.067-1.733 7.367-5.2 9.9-3.4 2.467-7.933 3.7-13.6 3.7Zm35.154-.2c-.933 0-1.7-.267-2.3-.8-.533-.533-.8-1.3-.8-2.3v-43.8c0-1 .267-1.767.8-2.3.6-.533 1.367-.8 2.3-.8.933 0 1.667.267 2.2.8.533.533.8 1.3.8 2.3v43.8c0 1-.267 1.767-.8 2.3-.533.533-1.267.8-2.2.8Zm0-61.3c-1.333 0-2.433-.4-3.3-1.2-.8-.8-1.2-1.833-1.2-3.1 0-1.333.4-2.4 1.2-3.2.867-.8 1.967-1.2 3.3-1.2 1.333 0 2.4.4 3.2 1.2.867.8 1.3 1.867 1.3 3.2 0 1.267-.433 2.3-1.3 3.1-.8.8-1.867 1.2-3.2 1.2Zm57.671 11.3c.933 0 1.667.3 2.2.9.6.533.9 1.267.9 2.2v43.6c0 7.067-1.767 12.4-5.3 16-3.467 3.667-8.633 5.5-15.5 5.5-3.6 0-6.833-.367-9.7-1.1-2.8-.667-5.433-1.733-7.9-3.2-2.4-1.467-3.6-2.9-3.6-4.3 0-.733.2-1.333.6-1.8.467-.467 1.033-.7 1.7-.7.4 0 .933.167 1.6.5.733.4 1.233.667 1.5.8 2.267 1.267 4.6 2.3 7 3.1 2.4.867 5.367 1.3 8.9 1.3 4.867 0 8.533-1.3 11-3.9 2.467-2.6 3.7-6.467 3.7-11.6v-9.5c-1.4 3.267-3.567 5.8-6.5 7.6-2.867 1.733-6.367 2.6-10.5 2.6-4.267 0-8.067-1-11.4-3-3.267-2-5.833-4.833-7.7-8.5-1.8-3.667-2.7-7.867-2.7-12.6s.9-8.933 2.7-12.6c1.867-3.667 4.433-6.5 7.7-8.5 3.333-2 7.133-3 11.4-3 4.067 0 7.533.867 10.4 2.6 2.867 1.667 5.033 4.133 6.5 7.4v-6.7c0-.933.266-1.667.8-2.2.533-.6 1.267-.9 2.2-.9Zm-19.1 42.6c5.067 0 9-1.667 11.8-5 2.867-3.333 4.3-7.9 4.3-13.7 0-5.8-1.433-10.367-4.3-13.7-2.867-3.4-6.8-5.1-11.8-5.1-5.067 0-9.033 1.667-11.9 5-2.867 3.333-4.3 7.933-4.3 13.8 0 5.867 1.433 10.467 4.3 13.8 2.867 3.267 6.833 4.9 11.9 4.9Zm60.912-42.8c11.667 0 17.5 6.267 17.5 18.8v28.3c0 .933-.266 1.7-.8 2.3-.533.533-1.266.8-2.2.8-.933 0-1.7-.267-2.3-.8-.533-.6-.8-1.367-.8-2.3V432c0-4.8-.966-8.3-2.9-10.5-1.933-2.2-5-3.3-9.2-3.3-4.8 0-8.666 1.467-11.6 4.4-2.866 2.933-4.3 6.867-4.3 11.8v25.5c0 .933-.266 1.7-.8 2.3-.533.533-1.266.8-2.2.8-.933 0-1.7-.267-2.3-.8-.533-.6-.8-1.367-.8-2.3v-43.8c0-.933.267-1.667.8-2.2.6-.6 1.367-.9 2.3-.9.867 0 1.567.267 2.1.8.534.533.8 1.267.8 2.2v6.3c1.534-3.067 3.734-5.4 6.6-7 2.934-1.667 6.3-2.5 10.1-2.5ZM293.75 31.25H250v25h37.5V350H25V56.25h37.5v-25H18.75c-4.971.006-9.737 1.983-13.252 5.498C1.983 40.263.006 45.029 0 50v306.25c.006 4.971 1.983 9.737 5.498 13.252 3.515 3.515 8.281 5.492 13.252 5.498h275c4.971-.006 9.737-1.983 13.252-5.498 3.515-3.515 5.492-8.281 5.498-13.252V50c-.006-4.971-1.983-9.737-5.498-13.252-3.515-3.515-8.281-5.492-13.252-5.498Z" style="fill:#8123e0;fill-rule:nonzero"/><path d="M106.25 96.875h100c4.971-.006 9.737-1.983 13.252-5.498 3.515-3.515 5.492-8.281 5.498-13.252V0H87.5v78.125c.006 4.971 1.983 9.737 5.498 13.252 3.515 3.515 8.281 5.492 13.252 5.498ZM112.5 25H200v46.875h-87.5V25Z" style="fill:#8123e0;fill-rule:nonzero"/></svg>